<svg width="50" height="41" viewBox="0 0 50 41" fill="none" xmlns="http://www.w3.org/2000/svg">
<mask id="path-1-inside-1_155_24" fill="white">
<path fill-rule="evenodd" clip-rule="evenodd" d="M11.1356 4.5308C10.0089 5.66796 8.47441 6.30769 6.87356 6.30769H6C2.68629 6.30769 0 8.99398 0 12.3077V35C0 38.3137 2.68629 41 6 41H44C47.3137 41 50 38.3137 50 35V12.3077C50 8.99398 47.3137 6.30769 44 6.30769H43.1264C41.5256 6.30769 39.9911 5.66796 38.8644 4.5308L36.1356 1.77689C35.0089 0.639732 33.4744 0 31.8736 0H18.1264C16.5256 0 14.9911 0.639733 13.8644 1.7769L11.1356 4.5308ZM25 31.5385C30.1777 31.5385 34.375 27.3024 34.375 22.0769C34.375 16.8515 30.1777 12.6154 25 12.6154C19.8223 12.6154 15.625 16.8515 15.625 22.0769C15.625 27.3024 19.8223 31.5385 25 31.5385Z"/>
</mask>
<path fill-rule="evenodd" clip-rule="evenodd" d="M11.1356 4.5308C10.0089 5.66796 8.47441 6.30769 6.87356 6.30769H6C2.68629 6.30769 0 8.99398 0 12.3077V35C0 38.3137 2.68629 41 6 41H44C47.3137 41 50 38.3137 50 35V12.3077C50 8.99398 47.3137 6.30769 44 6.30769H43.1264C41.5256 6.30769 39.9911 5.66796 38.8644 4.5308L36.1356 1.77689C35.0089 0.639732 33.4744 0 31.8736 0H18.1264C16.5256 0 14.9911 0.639733 13.8644 1.7769L11.1356 4.5308ZM25 31.5385C30.1777 31.5385 34.375 27.3024 34.375 22.0769C34.375 16.8515 30.1777 12.6154 25 12.6154C19.8223 12.6154 15.625 16.8515 15.625 22.0769C15.625 27.3024 19.8223 31.5385 25 31.5385Z" fill="white"/>
<path d="M36.1356 1.77689L71.653 -33.4156L36.1356 1.77689ZM38.8644 4.5308L3.34696 39.7233L38.8644 4.5308ZM11.1356 4.5308L-24.3818 -30.6617L11.1356 4.5308ZM6.87356 -43.6923H6V56.3077H6.87356V-43.6923ZM-50 12.3077V35H50V12.3077H-50ZM6 91H44V-9H6V91ZM100 35V12.3077H0V35H100ZM44 -43.6923H43.1264V56.3077H44V-43.6923ZM74.3818 -30.6617L71.653 -33.4156L0.618249 36.9694L3.34696 39.7233L74.3818 -30.6617ZM31.8736 -50H18.1264V50H31.8736V-50ZM-21.653 -33.4156L-24.3818 -30.6617L46.653 39.7233L49.3818 36.9694L-21.653 -33.4156ZM25 81.5385C58.224 81.5385 84.375 54.4825 84.375 22.0769H-15.625C-15.625 0.122272 2.13127 -18.4615 25 -18.4615V81.5385ZM84.375 22.0769C84.375 -10.3286 58.224 -37.3846 25 -37.3846V62.6154C2.13127 62.6154 -15.625 44.0316 -15.625 22.0769H84.375ZM25 -37.3846C-8.22404 -37.3846 -34.375 -10.3286 -34.375 22.0769H65.625C65.625 44.0316 47.8687 62.6154 25 62.6154V-37.3846ZM-34.375 22.0769C-34.375 54.4825 -8.22404 81.5385 25 81.5385V-18.4615C47.8687 -18.4615 65.625 0.122272 65.625 22.0769H-34.375ZM18.1264 -50C3.18515 -50 -11.1366 -44.0292 -21.653 -33.4156L49.3818 36.9694C41.1188 45.3086 29.866 50 18.1264 50V-50ZM71.653 -33.4156C61.1366 -44.0292 46.8148 -50 31.8736 -50V50C20.134 50 8.88118 45.3086 0.618249 36.9694L71.653 -33.4156ZM43.1264 -43.6923C54.866 -43.6923 66.1188 -39.0009 74.3818 -30.6617L3.34696 39.7233C13.8634 50.3368 28.1851 56.3077 43.1264 56.3077V-43.6923ZM100 12.3077C100 -18.6202 74.928 -43.6923 44 -43.6923V56.3077C19.6995 56.3077 0 36.6082 0 12.3077H100ZM44 91C74.9279 91 100 65.928 100 35H0C0 10.6995 19.6995 -9 44 -9V91ZM-50 35C-50 65.9279 -24.928 91 6 91V-9C30.3005 -9 50 10.6995 50 35H-50ZM6 -43.6923C-24.9279 -43.6923 -50 -18.6203 -50 12.3077H50C50 36.6082 30.3005 56.3077 6 56.3077V-43.6923ZM6.87356 56.3077C21.8148 56.3077 36.1366 50.3369 46.653 39.7233L-24.3818 -30.6617C-16.1188 -39.0009 -4.86602 -43.6923 6.87356 -43.6923V56.3077Z" fill="white" mask="url(#path-1-inside-1_155_24)"/>
</svg>
