<svg width="35" height="36" viewBox="0 0 35 36" fill="none" xmlns="http://www.w3.org/2000/svg">
<path d="M2.12552 12.0024C0.777516 13.1424 0 14.8183 0 16.5837V30C0 33.3137 2.68629 36 6 36H6.5C9.81371 36 12.5 33.3137 12.5 30V26.1333C12.5 23.4087 14.7386 21.2 17.5 21.2C20.2614 21.2 22.5 23.4087 22.5 26.1333V30C22.5 33.3137 25.1863 36 28.5 36H29C32.3137 36 35 33.3137 35 30V16.5837C35 14.8183 34.2225 13.1424 32.8745 12.0024L21.3745 2.27671C19.1378 0.385119 15.8622 0.385117 13.6255 2.2767L2.12552 12.0024Z" fill="white"/>
</svg>
