<svg width="49" height="49" viewBox="0 0 49 49" fill="none" xmlns="http://www.w3.org/2000/svg">
<path d="M27.0112 10.4066C28.1092 12.5246 29.6653 14.8238 31.8669 17.0254C34.0682 19.2267 36.367 20.7825 38.4847 21.8804L21.9185 38.4466C20.4829 39.8821 19.8506 40.5105 19.1623 41.0476C18.3307 41.6963 17.4309 42.2524 16.4788 42.7061L27.0112 10.4066ZM27.0112 10.4066L10.445 26.9728C10.445 26.9729 10.4449 26.9729 10.4449 26.9729C9.00921 28.4088 8.38092 29.0407 7.84402 29.7288L27.0112 10.4066ZM1.55613 45.9536L1.55611 45.9537C1.42537 46.3459 1.5273 46.7786 1.81996 47.0714C1.82002 47.0715 1.82008 47.0715 1.82015 47.0716M1.55613 45.9536L3.41222 48.7584C2.4807 49.0689 1.45369 48.8264 0.759355 48.1321L1.82015 47.0716M1.55613 45.9536L4.88345 35.9715C4.88345 35.9715 4.88345 35.9715 4.88346 35.9715C5.52563 34.0451 5.80979 33.2007 6.18537 32.4126L1.55613 45.9536ZM1.82015 47.0716C2.11277 47.3641 2.54546 47.4662 2.93786 47.3354M1.82015 47.0716L2.93786 47.3354M2.93786 47.3354L3.40936 48.7498L2.93795 47.3354L12.9199 44.0079L12.9199 44.0079C14.8465 43.3657 15.6908 43.0817 16.4788 42.7061L2.93786 47.3354ZM6.18539 32.4125C6.63913 31.4605 7.1952 30.5608 7.84386 29.729L6.18539 32.4125Z" fill="white" stroke="white" stroke-width="3"/>
<path d="M32.0445 5.37316L33.5414 3.87627C33.5414 3.87626 33.5414 3.87625 33.5414 3.87625C36.7097 0.707911 41.8467 0.707918 45.015 3.87627L46.0757 2.81561L45.015 3.87627C48.1834 7.04461 48.1834 12.1815 45.015 15.3499L43.5178 16.8471C41.4853 16.0636 38.9655 14.6957 36.5809 12.3112C34.1959 9.92614 32.8279 7.40579 32.0445 5.37316Z" fill="white" stroke="white" stroke-width="3"/>
</svg>
