<svg width="40" height="50" viewBox="0 0 40 50" fill="none" xmlns="http://www.w3.org/2000/svg">
<path fill-rule="evenodd" clip-rule="evenodd" d="M12.9593 20.6447C12.0034 16.3432 16.9031 13.165 20.4411 15.7917L37.3919 28.3764C40.637 30.7857 39.5911 35.8876 35.66 36.8258L32.3889 37.6064L38.1425 45.8442C38.8949 46.9216 38.6315 48.4048 37.5541 49.1572C36.477 49.9097 34.9936 49.6463 34.2412 48.569L28.1721 39.8791L25.5064 42.7419C22.8951 45.5461 18.2098 44.2718 17.3785 40.5313L12.9593 20.6447ZM34.5553 32.1971L17.6045 19.6124L22.0238 39.4989L26.696 34.4817L27.1857 33.9559L27.8849 33.7891L34.5553 32.1971Z" fill="white"/>
<path d="M21.1966 11.725L26.6164 7.73602M3.58154 24.6892L9.00155 20.7002" stroke="white" stroke-width="3" stroke-linecap="round"/>
<path d="M21.1966 11.725L26.6164 7.73602M3.58154 24.6892L9.00155 20.7002" stroke="white" stroke-width="3" stroke-linecap="round"/>
<path d="M2 10.4766L8.16456 13.176" stroke="white" stroke-width="3" stroke-linecap="round"/>
<path d="M13.5177 2L14.2623 8.68833" stroke="white" stroke-width="3" stroke-linecap="round"/>
</svg>
