<svg width="47" height="47" viewBox="0 0 47 47" fill="none" xmlns="http://www.w3.org/2000/svg">
<path d="M12.7363 4.87264C15.8946 3.04565 19.5615 2 23.4725 2C35.3314 2 44.9451 11.6136 44.9451 23.4725C44.9451 24.8633 44.3017 26.1572 43.3183 27.1407L27.1407 43.3183C26.1572 44.3017 24.8633 44.9451 23.4725 44.9451C11.6136 44.9451 2 35.3314 2 23.4725C2 19.5615 3.04565 15.8946 4.87264 12.7363" stroke="white" stroke-width="4" stroke-linecap="round"/>
<path d="M23.4725 34.2088C21.0775 34.2088 18.8567 33.4149 17.0308 32.0615" stroke="white" stroke-width="4" stroke-linecap="round"/>
<path d="M30.0616 20.2516C30.0616 20.6079 29.9977 20.9043 29.9143 21.1263C29.831 20.9043 29.7671 20.6079 29.7671 20.2516C29.7671 19.8954 29.831 19.599 29.9143 19.377C29.9977 19.599 30.0616 19.8954 30.0616 20.2516ZM29.6732 21.5356C29.6731 21.5351 29.6768 21.5316 29.6846 21.5265C29.6772 21.5335 29.6733 21.5361 29.6732 21.5356ZM30.1441 21.5265C30.1519 21.5316 30.1555 21.5351 30.1555 21.5356C30.1554 21.5361 30.1515 21.5335 30.1441 21.5265ZM30.1555 18.9677C30.1555 18.9681 30.1519 18.9717 30.1441 18.9768C30.1515 18.9698 30.1554 18.9672 30.1555 18.9677ZM29.6845 18.9768C29.6768 18.9717 29.6731 18.9681 29.6732 18.9677C29.6733 18.9672 29.6772 18.9698 29.6845 18.9768Z" fill="white" stroke="white" stroke-width="4"/>
<path d="M17.1781 20.2516C17.1781 20.6079 17.1141 20.9043 17.0308 21.1263C16.9475 20.9043 16.8835 20.6079 16.8835 20.2516C16.8835 19.8954 16.9475 19.599 17.0308 19.377C17.1141 19.599 17.1781 19.8954 17.1781 20.2516ZM16.7897 21.5356C16.7896 21.5351 16.7933 21.5316 16.801 21.5265C16.7936 21.5335 16.7898 21.5361 16.7897 21.5356ZM17.2606 21.5265C17.2683 21.5316 17.272 21.5351 17.2719 21.5356C17.2718 21.5361 17.268 21.5335 17.2606 21.5265ZM17.2719 18.9677C17.272 18.9681 17.2683 18.9717 17.2606 18.9768C17.268 18.9698 17.2718 18.9672 17.2719 18.9677ZM16.801 18.9768C16.7933 18.9717 16.7896 18.9681 16.7897 18.9677C16.7898 18.9672 16.7936 18.9698 16.801 18.9768Z" fill="white" stroke="white" stroke-width="4"/>
<path d="M23.4725 44.945C23.4725 38.9479 23.4725 35.9495 24.316 33.5388C25.8268 29.2213 29.2214 25.8267 33.5389 24.3159C35.9496 23.4725 38.948 23.4725 44.9451 23.4725" stroke="white" stroke-width="4"/>
</svg>
